<?xml version="1.0" encoding="iso-8859-1"?>
<!-- Generator: Adobe Illustrator 19.0.0, SVG Export Plug-In . SVG Version: 6.00 Build 0)  -->
<svg version="1.1" id="Capa_1" xmlns="http://www.w3.org/2000/svg" xmlns:xlink="http://www.w3.org/1999/xlink" x="0px" y="0px"
	 viewBox="0 0 512 512" style="enable-background:new 0 0 512 512;" xml:space="preserve">
<path style="fill:#FFCA28;" d="M320,303.984c17.673,0,32,14.327,32,32l0,0c0,17.673-14.327,32-32,32h-16c17.673,0,32,14.327,32,32
	s-14.327,32-32,32H144c-35.302-0.105-63.895-28.698-64-64v-143.36c-0.019-10.442,5.057-20.236,13.6-26.24L252.16,87.12
	c12.852-12.131,33.105-11.547,45.236,1.305s11.547,33.105-1.305,45.236c-1.319,1.245-2.741,2.375-4.251,3.379l-48.96,38.944H480
	c17.673,0,32,14.327,32,32s-14.327,32-32,32H336c17.673,0,32,14.327,32,32l0,0c0,17.673-14.327,32-32,32H320z"/>
<path style="fill:#263238;" d="M16,175.984h64c8.328-0.456,15.468,5.884,16,14.208v227.584c-0.532,8.324-7.672,14.664-16,14.208H16
	c-8.328,0.456-15.468-5.884-16-14.208V190.192C0.532,181.868,7.672,175.528,16,175.984z"/>
<path d="M464,255.984H272c-8.837,0-16-7.163-16-16s7.163-16,16-16h192c8.837,0,16-7.163,16-16s-7.163-16-16-16H242.88
	c-8.837,0-16-7.163-16-16s7.163-16,16-16H464c26.51,0,48,21.49,48,48S490.51,255.984,464,255.984L464,255.984z"/>
<path d="M336,319.984h-48c-8.837,0-16-7.163-16-16s7.163-16,16-16h48c8.837,0,16-7.163,16-16s-7.163-16-16-16s-16-7.163-16-16
	s7.163-16,16-16c26.51,0,48,21.49,48,48S362.51,319.984,336,319.984z"/>
<path d="M320,383.984h-48c-8.837,0-16-7.163-16-16s7.163-16,16-16h48c8.837,0,16-7.163,16-16s-7.163-16-16-16s-16-7.163-16-16
	s7.163-16,16-16c26.51,0,48,21.49,48,48S346.51,383.984,320,383.984z"/>
<path d="M80,447.984H16c-8.837,0-16-7.163-16-16v-256c0-8.837,7.163-16,16-16h64c8.837,0,16,7.163,16,16v256
	C96,440.82,88.837,447.984,80,447.984z M32,415.984h32v-224H32V415.984z"/>
<path d="M304,447.984H144c-44.183,0-80-35.817-80-80v-143.36c-0.012-15.637,7.594-30.3,20.384-39.296L242.976,74
	c9.749-7.74,22.216-11.203,34.56-9.6c26.198,3.288,44.956,26.924,42.208,53.184c-1.449,12.681-7.986,24.23-18.112,32L252.8,188.528
	c-6.928,5.505-17.007,4.352-22.512-2.576c-5.505-6.928-4.352-17.007,2.576-22.512l49.024-38.944
	c6.823-5.158,8.173-14.872,3.015-21.695c-0.107-0.141-0.215-0.28-0.327-0.417c-2.529-3.515-6.396-5.831-10.688-6.4
	c-4.152-0.47-8.312,0.805-11.488,3.52l-159.616,112c-4.265,3.006-6.797,7.902-6.784,13.12v143.36c0,26.51,21.49,48,48,48h160
	c8.837,0,16-7.163,16-16s-7.163-16-16-16s-16-7.163-16-16s7.163-16,16-16c26.51,0,48,21.49,48,48S330.51,447.984,304,447.984z"/>
<g>
</g>
<g>
</g>
<g>
</g>
<g>
</g>
<g>
</g>
<g>
</g>
<g>
</g>
<g>
</g>
<g>
</g>
<g>
</g>
<g>
</g>
<g>
</g>
<g>
</g>
<g>
</g>
<g>
</g>
</svg>
